
<svg width="410px" height="128px" viewBox="0 0 410 128" version="1.1" xmlns="http://www.w3.org/2000/svg" xmlns:xlink="http://www.w3.org/1999/xlink">
    <g id="Logo-Black" stroke="none" stroke-width="1" fill="none" fill-rule="evenodd">
        <g id="logoBlack" fill="#000000" fill-rule="nonzero">
            <path d="M286.751121,124.911514 C283.14454,121.291013 281.450983,116.218751 281.450983,109.037386 C281.450983,102.80771 282.824847,98.210251 287.294625,89.482268 C290.446552,83.327624 297.19884,74.36293 299.2442,73.617394 C300.563176,73.13663 299.460975,75.954053 298.044726,76.683131 C296.60583,77.423944 295.945449,81.292364 297.257897,81.292364 C297.629347,81.292364 297.698923,81.526715 297.412484,81.813145 C297.126046,82.09957 296.385239,82.337974 295.766207,82.342933 C293.929573,82.357709 294.004419,83.783707 295.879776,84.5071 L297.617682,85.177471 L296.35838,87.649811 C295.66578,89.0096 294.120348,92.029386 292.924116,94.36045 C289.060051,101.89026 288.037526,113.049698 290.667009,118.99406 C291.708963,121.349593 292.517735,122.262578 293.562379,122.262578 C296.232769,122.262578 299.79648,120.010594 303.474335,115.998996 C309.203878,109.749526 317.486956,91.332639 322.337733,74.057441 C324.772736,65.385652 326.869831,53.566847 326.537898,50.386135 C326.30873,48.190244 326.25093,48.233396 321.045903,54.487074 C316.16196,60.354945 315.598587,60.807257 313.173794,60.807257 C311.2454,60.807257 309.966979,60.251338 308.287534,58.682513 C306.096872,56.636135 306.029612,56.408173 306.463316,52.501664 C306.762501,49.80687 307.94376,46.376432 309.982923,42.280493 C311.671033,38.88971 312.696712,36.32262 312.262236,36.57585 C303.903165,41.447689 300.263991,45.523344 294.473076,56.498587 C291.03846,63.008057 290.792818,63.288266 288.338431,63.496083 C284.997559,63.778954 284.06009,62.194022 284.902183,57.686534 L285.509109,54.437866 L279.771516,60.454068 C275.725586,64.696481 273.513289,66.49249 272.267991,66.545639 C267.318242,66.756878 265.933594,65.787407 264.801998,61.318165 L264.046637,58.334917 L262.920201,60.454066 C260.786301,64.468462 257.575009,67.056987 254.078139,67.581378 C251.075264,68.031683 250.695169,67.913979 249.233823,66.081297 L247.648079,64.092561 L245.074234,66.055712 C239.42935,70.361285 233.45077,68.555432 231.152094,61.850485 C228.313554,53.570808 230.363126,39.845904 236.740392,24.428535 C238.825093,19.388658 246.939889,6.919418 249.136219,5.381054 C252.763243,2.840591 256.739797,4.895866 256.712672,9.296919 C256.69503,12.314442 253.823367,20.569842 251.60655,23.980798 C250.689016,25.392584 247.822293,30.859688 245.236077,36.129913 C242.64986,41.400139 239.538024,46.962907 238.320931,48.491616 C236.238325,51.107405 236.124005,51.556882 236.379725,56.124171 C236.604439,60.137715 236.930968,61.203598 238.267277,62.285683 C239.774228,63.505936 240.001147,63.516773 241.6347,62.446423 C243.629736,61.139216 246.295033,57.420216 249.643733,51.271076 C250.913179,48.940012 252.808935,46.079162 253.85649,44.913628 C254.904067,43.748098 257.442893,40.67552 259.498331,38.085678 C261.553768,35.495838 264.364677,32.573459 265.74476,31.591503 C268.085203,29.926265 268.389085,29.875964 270.261024,30.843976 C273.297132,32.414016 272.925659,34.91049 268.912234,39.908703 C264.59841,45.281004 261.939994,49.023701 259.439804,53.244715 C256.163347,58.77622 257.135769,58.016646 261.984143,51.257289 C264.486737,47.768276 268.221729,42.74579 270.284135,40.096208 C272.346541,37.446626 274.528273,34.64383 275.132442,33.867774 C276.093045,32.633916 276.469964,32.565659 278.134589,33.324114 C280.684441,34.485904 280.632949,36.989833 277.940749,42.74796 C276.180681,46.512491 271.561542,59.340978 271.561542,60.464567 C271.561542,61.627655 273.452336,60.095441 278.696175,54.682965 C281.959577,51.314612 285.499317,47.727851 286.562287,46.712387 C287.658247,45.665388 289.227429,42.735734 290.186885,39.94518 C293.660534,29.842329 294.124075,29.020013 296.345369,29.020013 C299.355697,29.020013 300.848865,31.617882 299.868239,35.149282 C298.751483,39.170995 298.785576,39.181966 303.172173,36.212258 C309.098732,32.200004 311.165681,31.273898 315.423425,30.723016 C317.523849,30.451253 319.869408,29.797967 320.635751,29.271267 C322.261586,28.153837 324.061833,28.047988 325.786022,28.968448 C326.460648,29.328597 327.573655,29.797261 328.259374,30.009921 C329.990267,30.546714 331.096349,33.686421 330.166575,35.423709 C329.282407,37.075791 326.086331,37.253149 325.484036,35.683557 C325.206066,34.959199 323.993603,36.819637 321.974287,41.068954 C320.277488,44.63959 318.889201,47.706185 318.889201,47.88361 C318.889201,48.061043 320.495917,46.448202 322.459682,44.299533 C324.423448,42.150867 326.68201,40.185977 327.478719,39.933113 C329.444558,39.309176 333.258057,41.463053 334.795439,44.065626 C338.17563,49.787849 331.643248,77.471436 321.510746,100.364695 C317.316865,109.840292 310.317457,119.56417 304.588973,123.873128 C299.89329,127.405234 298.519845,127.913632 293.673677,127.913632 C289.987751,127.913632 289.554422,127.725701 286.751033,124.911503 L286.751121,124.911514 Z M241.893551,32.535266 C241.893551,32.183445 243.486396,28.656129 245.433247,24.696787 C247.380055,20.737445 248.848105,17.373164 248.695546,17.220608 C248.404631,16.929693 243.323891,25.872508 243.282345,26.748594 C243.269113,27.026602 242.644193,28.525554 241.893551,30.079598 C240.352838,33.269245 240.157057,34.248153 241.187169,33.611511 C241.575666,33.371398 241.893551,32.887088 241.893551,32.535266 Z M303.67768,72.275166 C302.507866,71.444397 302.879096,69.158492 304.322668,68.303675 C305.326096,67.709496 305.727979,67.733195 305.970886,68.400882 C306.147526,68.88652 306.742455,69.28386 307.292839,69.28386 C308.997291,69.28386 308.393474,71.399986 306.481598,72.126875 C304.350631,72.937069 304.591752,72.924318 303.67768,72.275177 L303.67768,72.275166 Z M143.179242,70.385924 C139.719281,67.474552 138.493219,63.330296 138.945776,56.076266 L139.328065,49.948726 L134.16913,55.347223 C131.331723,58.316397 128.161046,60.958845 127.123185,61.219332 C124.458404,61.888151 121.993756,60.537435 120.619171,57.654902 C119.576599,55.468613 119.541929,54.52198 120.318618,49.448337 C120.801495,46.293976 121.089114,43.605668 120.957761,43.474319 C120.826417,43.342975 119.13631,45.450926 117.201987,48.158669 C103.950184,66.709025 104.162637,66.458322 101.694506,66.458322 C97.815325,66.458322 96.877807,64.137217 97.985386,57.275343 L98.498462,54.096618 L96.688461,56.215768 C93.17607,60.328067 89.071716,64.465884 87.453054,65.526476 C83.771266,67.938871 78.012682,66.105857 78.012682,62.521509 C78.012682,58.596385 77.209038,58.66481 74.126305,62.852405 C71.413935,66.536906 70.746877,67.034582 67.960782,67.452387 C64.047659,68.039192 63.071325,67.663186 61.470259,64.952807 C58.889849,60.584523 61.378565,52.803828 68.420228,43.224453 C72.443255,37.751582 78.211502,31.505232 80.301229,30.358688 C81.170016,29.882021 82.049874,30.024908 83.303358,30.846221 C85.891778,32.542219 85.57909,35.087714 82.269489,39.262577 C78.592709,43.900612 71.799528,53.932961 71.204018,55.604354 C70.67628,57.085543 74.404811,52.390464 78.011008,47.032789 C79.318524,45.090235 82.308842,41.116832 84.656158,38.203001 C87.003477,35.289172 89.0106,32.774025 89.116422,32.613788 C89.222252,32.453556 90.077296,32.67258 91.016516,33.100516 C93.843843,34.388733 93.867922,36.268366 91.134673,42.321921 C87.901799,49.482014 84.913494,58.393675 85.224938,59.945822 C85.400894,60.822795 87.623286,58.947806 93.219392,53.201027 C100.454536,45.771085 101.111104,44.858387 103.089281,39.480875 C104.254812,36.312476 105.609739,33.588423 106.100238,33.427425 C106.590729,33.26642 108.117774,34.260432 109.493667,35.636325 C111.763323,37.905984 111.94938,38.386585 111.500161,40.81941 L111.00503,43.500875 L114.390928,39.359947 C119.264942,33.399061 125.255268,31.452957 128.739065,34.698604 C130.608868,36.440589 130.671256,38.361747 129.131375,46.7786 C128.496868,50.246762 128.164338,53.270964 128.392415,53.499045 C128.899117,54.005743 133.199316,50.649875 138.330404,45.743467 C140.960756,43.228287 142.541966,40.986432 143.399669,38.556192 C144.085256,36.613641 144.911526,34.722299 145.23582,34.353215 C146.572418,32.832019 145.660576,32.409755 142.021051,32.864482 C139.304859,33.203849 137.197881,33.006588 134.655024,32.174864 C130.485591,30.811113 128.666696,29.079023 128.992438,26.782531 C129.247011,24.987733 129.708145,24.946735 134.335979,26.307452 C136.729223,27.011135 138.564845,27.008081 143.516274,26.292236 C146.920178,25.800081 149.929057,24.997372 150.202683,24.508435 C150.476307,24.019498 152.160246,21.636102 153.944767,19.212001 C156.709163,15.456833 157.472275,14.837181 159.101019,15.025076 C160.676387,15.20681 161.051037,15.641571 161.230685,17.496375 C161.350583,18.734295 160.953239,20.705213 160.347707,21.876191 C159.742166,23.047166 159.24673,24.179962 159.24673,24.393511 C159.24673,24.607067 161.71024,24.813219 164.721199,24.851641 C169.721443,24.915438 178.456754,25.790588 177.61269,26.143166 C177.41843,26.224319 175.260312,26.410009 172.816856,26.555832 C169.223782,26.77027 161.748166,28.139706 157.41272,29.377681 C156.619474,29.60419 150.071266,46.18795 148.767941,51.271142 C146.738417,59.186611 147.240374,70.270689 149.524894,67.986169 C150.689331,66.821732 152.889282,66.966817 152.889282,68.208052 C152.889282,69.517212 150.298525,71.250147 147.50646,71.808557 C145.849563,72.139934 144.888047,71.823773 143.179242,70.385979 L143.179242,70.385924 Z M361.283519,71.386091 C357.790795,70.564844 354.430385,66.654681 353.841299,62.726338 C352.532225,53.996884 359.871306,36.482846 367.840931,29.317467 C370.706926,26.740691 371.801144,26.194491 374.097284,26.194491 C377.948955,26.194491 380.344617,28.783578 380.344617,32.946226 C380.344617,38.559833 372.066876,50.547056 365.183066,54.902076 C363.467125,55.987664 361.889563,57.52203 361.677375,58.311777 C361.06401,60.59461 361.209908,63.609139 362.005735,65.096132 C362.672599,66.342221 362.913919,66.376248 364.664284,65.471094 C366.686268,64.425486 371.911583,59.115175 376.204258,53.743427 C377.625027,51.965512 379.451054,48.385668 380.347903,45.620024 C381.2298,42.900448 382.891382,38.052895 384.040312,34.847683 C386.000461,29.379436 386.254857,29.020024 388.165344,29.020024 C391.288846,29.020024 392.84107,31.817318 391.826615,35.618013 C391.397101,37.227185 391.112052,38.610148 391.19316,38.691267 C391.274313,38.772376 393.384441,37.416434 395.882404,35.678046 C400.118382,32.73013 405.744632,30.432789 408.728144,30.432789 C410.570886,30.432789 410.361146,33.01523 408.423336,34.18599 C407.549201,34.714122 405.023584,36.208512 402.810869,37.506858 C395.726493,41.663743 392.005637,45.924219 386.967767,55.647638 C382.919234,63.461569 382.770094,63.632788 380.012883,63.632788 C378.343406,63.632788 377.548792,63.215528 377.037926,62.07063 C376.383433,60.603881 376.186484,60.749797 373.813293,64.459703 C371.034537,68.803577 367.182976,72.149465 365.090711,72.03708 C364.350346,71.997319 362.637117,71.704366 361.283519,71.386091 Z M371.475497,37.443631 C372.526977,35.511698 373.272348,33.586173 373.131852,33.164688 C372.853485,32.329601 368.505965,38.67365 367.016701,42.088108 L366.092397,44.207257 L367.828052,42.581746 C368.782657,41.687716 370.423994,39.375564 371.475497,37.443631 Z M193.848479,67.261691 C191.406251,65.956125 189.604727,62.707066 188.566959,57.736465 L188.147051,55.725245 L183.861333,60.402351 C178.929408,65.784679 177.667872,66.599599 174.267683,66.599599 C171.207766,66.599599 169.708997,65.169166 168.733935,61.318165 L167.978579,58.334917 L166.852122,60.454066 C164.718225,64.468462 161.506931,67.056987 158.010065,67.581378 C154.998649,68.032962 154.623721,67.915158 153.066445,66.028001 C151.600571,64.251616 151.421292,63.431937 151.688285,59.726906 C152.038755,54.863431 153.524597,51.597776 158.697264,44.322227 C163.58422,37.44854 166.588027,33.970511 169.601372,31.696671 C171.994007,29.891213 172.25495,29.841811 174.16944,30.831834 C177.230798,32.414922 176.868386,34.897069 172.844159,39.908714 C168.530334,45.281015 165.871933,49.023712 163.371725,53.244726 C160.095286,58.776231 161.067709,58.016657 165.916067,51.2573 C168.418669,47.768287 172.15367,42.745801 174.216068,40.096219 C176.278465,37.446637 178.460208,34.643841 179.064384,33.867785 C180.024973,32.633927 180.401886,32.56567 182.066511,33.324125 C184.616363,34.485915 184.564875,36.989844 181.872736,42.747971 C180.112677,46.512502 175.493541,59.340989 175.493541,60.464578 C175.493541,61.615861 177.376926,60.113464 182.628163,54.773206 L188.561627,48.739154 L189.411658,43.267521 C191.028866,32.857533 196.559903,19.782399 203.079638,10.956952 C207.399415,5.109492 208.383283,4.296619 211.141045,4.296619 C214.342171,4.296619 215.351465,6.12612 214.84695,11.014314 C214.467208,14.693543 209.730751,26.194491 208.595251,26.194491 C208.260804,26.194491 207.987178,26.537829 207.987178,26.957464 C207.987178,28.178977 199.633755,44.43325 196.983555,48.368577 C194.3689,52.251117 193.872446,55.781721 195.346562,60.010376 C197.321467,65.675579 201.230893,63.43003 206.863608,53.395099 C210.525629,46.870992 213.296513,43.147682 214.489768,43.147682 C215.483537,43.147682 214.904242,45.236037 211.844605,52.683854 C208.741634,60.237103 204.798534,65.799251 201.405394,67.409396 C198.249506,68.906963 196.875938,68.880121 193.848479,67.261689 L193.848479,67.261691 Z M205.646757,20.0867 C205.21958,19.659519 198.788264,32.960432 198.866673,34.108923 C198.901075,34.612368 200.511235,31.733929 202.44486,27.712388 C204.378502,23.690847 205.819339,20.259289 205.646757,20.0867 Z M339.969438,67.641859 C339.32542,67.151982 338.584989,65.327345 338.324021,63.587116 C337.757098,59.806541 340.075621,50.847648 343.887906,42.088108 C346.207862,36.757506 346.48215,36.425084 348.724967,36.226162 C351.561368,35.974591 354.914832,38.636758 354.914832,41.140025 C354.914832,42.01547 353.820526,45.129903 352.48307,48.060988 C351.145592,50.992076 348.888111,56.410023 347.466437,60.100875 C344.315987,68.279815 342.805509,69.799152 339.969438,67.641859 Z M4.09821,66.183073 C-0.781722,63.975463 -1.42002,53.569321 2.811357,45.203554 C5.047182,40.783147 9.570274,33.953859 11.106567,32.678847 C12.55387,31.477695 17.587175,32.652296 19.76666,34.699813 C22.076635,36.86992 22.501622,39.560789 21.091135,43.085941 C20.073089,45.630292 19.643748,46.018963 18.054798,45.834669 C16.616003,45.667798 16.153527,45.178412 15.976611,43.635591 C15.662998,40.900692 14.573856,41.521767 12.145303,45.82037 C9.952052,49.702485 8.103027,55.648829 8.089147,58.864703 C8.082311,60.472566 8.387701,60.807257 9.86223,60.807257 C12.410137,60.807257 19.793722,57.233461 24.278555,53.82948 C26.388403,52.228108 28.349626,50.917896 28.63683,50.917896 C29.247827,50.917896 31.391403,41.913817 31.391403,39.347328 C31.391403,38.196533 30.891361,37.433114 29.939754,37.131085 C28.10546,36.548904 28.511433,35.1842 30.670539,34.674505 C32.636863,34.210318 32.895066,33.735757 34.900067,26.900875 C37.551515,17.862302 42.21366,9.061327 46.872226,4.300401 C51.743175,-0.677575 53.615377,-1.083859 56.405208,2.231665 C57.989024,4.113923 58.233958,5.063063 58.233958,9.318184 C58.233958,12.020428 57.776317,15.326647 57.216976,16.665333 C55.901123,19.814618 49.347367,28.017282 45.301827,31.578309 C42.729554,33.842512 41.861523,35.261595 40.650498,39.182443 C38.542574,46.00711 38.784982,46.709509 41.810553,42.543788 C43.267467,40.537851 46.201247,37.75719 48.330062,36.364541 C52.891809,33.380294 56.117929,33.407518 58.763744,36.452596 C60.877336,38.885123 60.787949,40.147069 57.86033,49.207494 C54.767189,58.780179 54.025159,63.141823 55.59203,62.540555 C57.267324,61.897691 57.812261,63.560177 56.427719,65.090075 C54.175272,67.579003 50.311754,66.753868 48.585234,63.415149 C47.70088,61.704997 47.562568,60.051704 47.927568,55.55394 C48.364726,50.167036 49.651622,43.582484 50.800953,40.851948 C51.626079,38.891644 49.324146,39.323494 47.847787,41.405972 C47.149753,42.390581 45.658244,44.377283 44.533321,45.820866 C43.408397,47.264451 40.930442,51.719275 39.026758,55.720477 C37.123072,59.721679 35.053296,63.191948 34.427255,63.43218 C32.623404,64.12438 29.687944,62.047021 28.949581,59.555751 C28.577855,58.301532 28.095218,57.275354 27.877058,57.275354 C27.658894,57.275354 26.015552,58.485832 24.225186,59.965305 C17.702688,65.355182 8.531207,68.188505 4.09821,66.183084 L4.09821,66.183073 Z M52.356851,14.965129 C53.298907,12.868341 53.973558,10.190569 53.856076,9.014525 C53.669822,7.150018 53.121363,7.909396 49.572132,14.946018 C47.333448,19.38438 45.518915,23.33364 45.539834,23.72215 C45.617987,25.173628 50.707965,18.635139 52.356851,14.965129 Z M351.110198,32.178304 C349.999639,31.067752 350.093781,30.323599 351.844874,26.371086 C352.712679,24.412295 353.224692,24.075341 355.333276,24.075341 C358.50108,24.075341 361.884712,27.077757 360.541236,28.696551 C360.071145,29.262971 359.423951,29.726407 359.103022,29.726407 C358.782116,29.726407 357.662053,30.521087 356.614035,31.492365 C354.434376,33.512397 352.664826,33.732936 351.110198,32.178304 Z" id="logo"></path>
        </g>
    </g>
</svg>
