<?xml version="1.0" encoding="UTF-8"?>
<svg width="410px" height="128px" viewBox="0 0 410 128" version="1.1" xmlns="http://www.w3.org/2000/svg" xmlns:xlink="http://www.w3.org/1999/xlink">
    <!-- Generator: Sketch 50.2 (55047) - http://www.bohemiancoding.com/sketch -->
    <title>logo</title>
    <desc>Created with Sketch.</desc>
    <defs></defs>
    <g id="Page-1" stroke="none" stroke-width="1" fill="none" fill-rule="evenodd">
        <g id="macbook-pro-13inch-copy" transform="translate(-435.000000, -236.000000)" fill="#FFFFFF" fill-rule="nonzero">
            <path d="M721.751121,360.911514 C718.14454,357.291013 716.450983,352.218751 716.450983,345.037386 C716.450983,338.80771 717.824847,334.210251 722.294625,325.482268 C725.446552,319.327624 732.19884,310.36293 734.2442,309.617394 C735.563176,309.13663 734.460975,311.954053 733.044726,312.683131 C731.60583,313.423944 730.945449,317.292364 732.257897,317.292364 C732.629347,317.292364 732.698923,317.526715 732.412484,317.813145 C732.126046,318.09957 731.385239,318.337974 730.766207,318.342933 C728.929573,318.357709 729.004419,319.783707 730.879776,320.5071 L732.617682,321.177471 L731.35838,323.649811 C730.66578,325.0096 729.120348,328.029386 727.924116,330.36045 C724.060051,337.89026 723.037526,349.049698 725.667009,354.99406 C726.708963,357.349593 727.517735,358.262578 728.562379,358.262578 C731.232769,358.262578 734.79648,356.010594 738.474335,351.998996 C744.203878,345.749526 752.486956,327.332639 757.337733,310.057441 C759.772736,301.385652 761.869831,289.566847 761.537898,286.386135 C761.30873,284.190244 761.25093,284.233396 756.045903,290.487074 C751.16196,296.354945 750.598587,296.807257 748.173794,296.807257 C746.2454,296.807257 744.966979,296.251338 743.287534,294.682513 C741.096872,292.636135 741.029612,292.408173 741.463316,288.501664 C741.762501,285.80687 742.94376,282.376432 744.982923,278.280493 C746.671033,274.88971 747.696712,272.32262 747.262236,272.57585 C738.903165,277.447689 735.263991,281.523344 729.473076,292.498587 C726.03846,299.008057 725.792818,299.288266 723.338431,299.496083 C719.997559,299.778954 719.06009,298.194022 719.902183,293.686534 L720.509109,290.437866 L714.771516,296.454068 C710.725586,300.696481 708.513289,302.49249 707.267991,302.545639 C702.318242,302.756878 700.933594,301.787407 699.801998,297.318165 L699.046637,294.334917 L697.920201,296.454066 C695.786301,300.468462 692.575009,303.056987 689.078139,303.581378 C686.075264,304.031683 685.695169,303.913979 684.233823,302.081297 L682.648079,300.092561 L680.074234,302.055712 C674.42935,306.361285 668.45077,304.555432 666.152094,297.850485 C663.313554,289.570808 665.363126,275.845904 671.740392,260.428535 C673.825093,255.388658 681.939889,242.919418 684.136219,241.381054 C687.763243,238.840591 691.739797,240.895866 691.712672,245.296919 C691.69503,248.314442 688.823367,256.569842 686.60655,259.980798 C685.689016,261.392584 682.822293,266.859688 680.236077,272.129913 C677.64986,277.400139 674.538024,282.962907 673.320931,284.491616 C671.238325,287.107405 671.124005,287.556882 671.379725,292.124171 C671.604439,296.137715 671.930968,297.203598 673.267277,298.285683 C674.774228,299.505936 675.001147,299.516773 676.6347,298.446423 C678.629736,297.139216 681.295033,293.420216 684.643733,287.271076 C685.913179,284.940012 687.808935,282.079162 688.85649,280.913628 C689.904067,279.748098 692.442893,276.67552 694.498331,274.085678 C696.553768,271.495838 699.364677,268.573459 700.74476,267.591503 C703.085203,265.926265 703.389085,265.875964 705.261024,266.843976 C708.297132,268.414016 707.925659,270.91049 703.912234,275.908703 C699.59841,281.281004 696.939994,285.023701 694.439804,289.244715 C691.163347,294.77622 692.135769,294.016646 696.984143,287.257289 C699.486737,283.768276 703.221729,278.74579 705.284135,276.096208 C707.346541,273.446626 709.528273,270.64383 710.132442,269.867774 C711.093045,268.633916 711.469964,268.565659 713.134589,269.324114 C715.684441,270.485904 715.632949,272.989833 712.940749,278.74796 C711.180681,282.512491 706.561542,295.340978 706.561542,296.464567 C706.561542,297.627655 708.452336,296.095441 713.696175,290.682965 C716.959577,287.314612 720.499317,283.727851 721.562287,282.712387 C722.658247,281.665388 724.227429,278.735734 725.186885,275.94518 C728.660534,265.842329 729.124075,265.020013 731.345369,265.020013 C734.355697,265.020013 735.848865,267.617882 734.868239,271.149282 C733.751483,275.170995 733.785576,275.181966 738.172173,272.212258 C744.098732,268.200004 746.165681,267.273898 750.423425,266.723016 C752.523849,266.451253 754.869408,265.797967 755.635751,265.271267 C757.261586,264.153837 759.061833,264.047988 760.786022,264.968448 C761.460648,265.328597 762.573655,265.797261 763.259374,266.009921 C764.990267,266.546714 766.096349,269.686421 765.166575,271.423709 C764.282407,273.075791 761.086331,273.253149 760.484036,271.683557 C760.206066,270.959199 758.993603,272.819637 756.974287,277.068954 C755.277488,280.63959 753.889201,283.706185 753.889201,283.88361 C753.889201,284.061043 755.495917,282.448202 757.459682,280.299533 C759.423448,278.150867 761.68201,276.185977 762.478719,275.933113 C764.444558,275.309176 768.258057,277.463053 769.795439,280.065626 C773.17563,285.787849 766.643248,313.471436 756.510746,336.364695 C752.316865,345.840292 745.317457,355.56417 739.588973,359.873128 C734.89329,363.405234 733.519845,363.913632 728.673677,363.913632 C724.987751,363.913632 724.554422,363.725701 721.751033,360.911503 L721.751121,360.911514 Z M676.893551,268.535266 C676.893551,268.183445 678.486396,264.656129 680.433247,260.696787 C682.380055,256.737445 683.848105,253.373164 683.695546,253.220608 C683.404631,252.929693 678.323891,261.872508 678.282345,262.748594 C678.269113,263.026602 677.644193,264.525554 676.893551,266.079598 C675.352838,269.269245 675.157057,270.248153 676.187169,269.611511 C676.575666,269.371398 676.893551,268.887088 676.893551,268.535266 Z M738.67768,308.275166 C737.507866,307.444397 737.879096,305.158492 739.322668,304.303675 C740.326096,303.709496 740.727979,303.733195 740.970886,304.400882 C741.147526,304.88652 741.742455,305.28386 742.292839,305.28386 C743.997291,305.28386 743.393474,307.399986 741.481598,308.126875 C739.350631,308.937069 739.591752,308.924318 738.67768,308.275177 L738.67768,308.275166 Z M578.179242,306.385924 C574.719281,303.474552 573.493219,299.330296 573.945776,292.076266 L574.328065,285.948726 L569.16913,291.347223 C566.331723,294.316397 563.161046,296.958845 562.123185,297.219332 C559.458404,297.888151 556.993756,296.537435 555.619171,293.654902 C554.576599,291.468613 554.541929,290.52198 555.318618,285.448337 C555.801495,282.293976 556.089114,279.605668 555.957761,279.474319 C555.826417,279.342975 554.13631,281.450926 552.201987,284.158669 C538.950184,302.709025 539.162637,302.458322 536.694506,302.458322 C532.815325,302.458322 531.877807,300.137217 532.985386,293.275343 L533.498462,290.096618 L531.688461,292.215768 C528.17607,296.328067 524.071716,300.465884 522.453054,301.526476 C518.771266,303.938871 513.012682,302.105857 513.012682,298.521509 C513.012682,294.596385 512.209038,294.66481 509.126305,298.852405 C506.413935,302.536906 505.746877,303.034582 502.960782,303.452387 C499.047659,304.039192 498.071325,303.663186 496.470259,300.952807 C493.889849,296.584523 496.378565,288.803828 503.420228,279.224453 C507.443255,273.751582 513.211502,267.505232 515.301229,266.358688 C516.170016,265.882021 517.049874,266.024908 518.303358,266.846221 C520.891778,268.542219 520.57909,271.087714 517.269489,275.262577 C513.592709,279.900612 506.799528,289.932961 506.204018,291.604354 C505.67628,293.085543 509.404811,288.390464 513.011008,283.032789 C514.318524,281.090235 517.308842,277.116832 519.656158,274.203001 C522.003477,271.289172 524.0106,268.774025 524.116422,268.613788 C524.222252,268.453556 525.077296,268.67258 526.016516,269.100516 C528.843843,270.388733 528.867922,272.268366 526.134673,278.321921 C522.901799,285.482014 519.913494,294.393675 520.224938,295.945822 C520.400894,296.822795 522.623286,294.947806 528.219392,289.201027 C535.454536,281.771085 536.111104,280.858387 538.089281,275.480875 C539.254812,272.312476 540.609739,269.588423 541.100238,269.427425 C541.590729,269.26642 543.117774,270.260432 544.493667,271.636325 C546.763323,273.905984 546.94938,274.386585 546.500161,276.81941 L546.00503,279.500875 L549.390928,275.359947 C554.264942,269.399061 560.255268,267.452957 563.739065,270.698604 C565.608868,272.440589 565.671256,274.361747 564.131375,282.7786 C563.496868,286.246762 563.164338,289.270964 563.392415,289.499045 C563.899117,290.005743 568.199316,286.649875 573.330404,281.743467 C575.960756,279.228287 577.541966,276.986432 578.399669,274.556192 C579.085256,272.613641 579.911526,270.722299 580.23582,270.353215 C581.572418,268.832019 580.660576,268.409755 577.021051,268.864482 C574.304859,269.203849 572.197881,269.006588 569.655024,268.174864 C565.485591,266.811113 563.666696,265.079023 563.992438,262.782531 C564.247011,260.987733 564.708145,260.946735 569.335979,262.307452 C571.729223,263.011135 573.564845,263.008081 578.516274,262.292236 C581.920178,261.800081 584.929057,260.997372 585.202683,260.508435 C585.476307,260.019498 587.160246,257.636102 588.944767,255.212001 C591.709163,251.456833 592.472275,250.837181 594.101019,251.025076 C595.676387,251.20681 596.051037,251.641571 596.230685,253.496375 C596.350583,254.734295 595.953239,256.705213 595.347707,257.876191 C594.742166,259.047166 594.24673,260.179962 594.24673,260.393511 C594.24673,260.607067 596.71024,260.813219 599.721199,260.851641 C604.721443,260.915438 613.456754,261.790588 612.61269,262.143166 C612.41843,262.224319 610.260312,262.410009 607.816856,262.555832 C604.223782,262.77027 596.748166,264.139706 592.41272,265.377681 C591.619474,265.60419 585.071266,282.18795 583.767941,287.271142 C581.738417,295.186611 582.240374,306.270689 584.524894,303.986169 C585.689331,302.821732 587.889282,302.966817 587.889282,304.208052 C587.889282,305.517212 585.298525,307.250147 582.50646,307.808557 C580.849563,308.139934 579.888047,307.823773 578.179242,306.385979 L578.179242,306.385924 Z M796.283519,307.386091 C792.790795,306.564844 789.430385,302.654681 788.841299,298.726338 C787.532225,289.996884 794.871306,272.482846 802.840931,265.317467 C805.706926,262.740691 806.801144,262.194491 809.097284,262.194491 C812.948955,262.194491 815.344617,264.783578 815.344617,268.946226 C815.344617,274.559833 807.066876,286.547056 800.183066,290.902076 C798.467125,291.987664 796.889563,293.52203 796.677375,294.311777 C796.06401,296.59461 796.209908,299.609139 797.005735,301.096132 C797.672599,302.342221 797.913919,302.376248 799.664284,301.471094 C801.686268,300.425486 806.911583,295.115175 811.204258,289.743427 C812.625027,287.965512 814.451054,284.385668 815.347903,281.620024 C816.2298,278.900448 817.891382,274.052895 819.040312,270.847683 C821.000461,265.379436 821.254857,265.020024 823.165344,265.020024 C826.288846,265.020024 827.84107,267.817318 826.826615,271.618013 C826.397101,273.227185 826.112052,274.610148 826.19316,274.691267 C826.274313,274.772376 828.384441,273.416434 830.882404,271.678046 C835.118382,268.73013 840.744632,266.432789 843.728144,266.432789 C845.570886,266.432789 845.361146,269.01523 843.423336,270.18599 C842.549201,270.714122 840.023584,272.208512 837.810869,273.506858 C830.726493,277.663743 827.005637,281.924219 821.967767,291.647638 C817.919234,299.461569 817.770094,299.632788 815.012883,299.632788 C813.343406,299.632788 812.548792,299.215528 812.037926,298.07063 C811.383433,296.603881 811.186484,296.749797 808.813293,300.459703 C806.034537,304.803577 802.182976,308.149465 800.090711,308.03708 C799.350346,307.997319 797.637117,307.704366 796.283519,307.386091 Z M806.475497,273.443631 C807.526977,271.511698 808.272348,269.586173 808.131852,269.164688 C807.853485,268.329601 803.505965,274.67365 802.016701,278.088108 L801.092397,280.207257 L802.828052,278.581746 C803.782657,277.687716 805.423994,275.375564 806.475497,273.443631 Z M628.848479,303.261691 C626.406251,301.956125 624.604727,298.707066 623.566959,293.736465 L623.147051,291.725245 L618.861333,296.402351 C613.929408,301.784679 612.667872,302.599599 609.267683,302.599599 C606.207766,302.599599 604.708997,301.169166 603.733935,297.318165 L602.978579,294.334917 L601.852122,296.454066 C599.718225,300.468462 596.506931,303.056987 593.010065,303.581378 C589.998649,304.032962 589.623721,303.915158 588.066445,302.028001 C586.600571,300.251616 586.421292,299.431937 586.688285,295.726906 C587.038755,290.863431 588.524597,287.597776 593.697264,280.322227 C598.58422,273.44854 601.588027,269.970511 604.601372,267.696671 C606.994007,265.891213 607.25495,265.841811 609.16944,266.831834 C612.230798,268.414922 611.868386,270.897069 607.844159,275.908714 C603.530334,281.281015 600.871933,285.023712 598.371725,289.244726 C595.095286,294.776231 596.067709,294.016657 600.916067,287.2573 C603.418669,283.768287 607.15367,278.745801 609.216068,276.096219 C611.278465,273.446637 613.460208,270.643841 614.064384,269.867785 C615.024973,268.633927 615.401886,268.56567 617.066511,269.324125 C619.616363,270.485915 619.564875,272.989844 616.872736,278.747971 C615.112677,282.512502 610.493541,295.340989 610.493541,296.464578 C610.493541,297.615861 612.376926,296.113464 617.628163,290.773206 L623.561627,284.739154 L624.411658,279.267521 C626.028866,268.857533 631.559903,255.782399 638.079638,246.956952 C642.399415,241.109492 643.383283,240.296619 646.141045,240.296619 C649.342171,240.296619 650.351465,242.12612 649.84695,247.014314 C649.467208,250.693543 644.730751,262.194491 643.595251,262.194491 C643.260804,262.194491 642.987178,262.537829 642.987178,262.957464 C642.987178,264.178977 634.633755,280.43325 631.983555,284.368577 C629.3689,288.251117 628.872446,291.781721 630.346562,296.010376 C632.321467,301.675579 636.230893,299.43003 641.863608,289.395099 C645.525629,282.870992 648.296513,279.147682 649.489768,279.147682 C650.483537,279.147682 649.904242,281.236037 646.844605,288.683854 C643.741634,296.237103 639.798534,301.799251 636.405394,303.409396 C633.249506,304.906963 631.875938,304.880121 628.848479,303.261689 L628.848479,303.261691 Z M640.646757,256.0867 C640.21958,255.659519 633.788264,268.960432 633.866673,270.108923 C633.901075,270.612368 635.511235,267.733929 637.44486,263.712388 C639.378502,259.690847 640.819339,256.259289 640.646757,256.0867 Z M774.969438,303.641859 C774.32542,303.151982 773.584989,301.327345 773.324021,299.587116 C772.757098,295.806541 775.075621,286.847648 778.887906,278.088108 C781.207862,272.757506 781.48215,272.425084 783.724967,272.226162 C786.561368,271.974591 789.914832,274.636758 789.914832,277.140025 C789.914832,278.01547 788.820526,281.129903 787.48307,284.060988 C786.145592,286.992076 783.888111,292.410023 782.466437,296.100875 C779.315987,304.279815 777.805509,305.799152 774.969438,303.641859 Z M439.09821,302.183073 C434.218278,299.975463 433.57998,289.569321 437.811357,281.203554 C440.047182,276.783147 444.570274,269.953859 446.106567,268.678847 C447.55387,267.477695 452.587175,268.652296 454.76666,270.699813 C457.076635,272.86992 457.501622,275.560789 456.091135,279.085941 C455.073089,281.630292 454.643748,282.018963 453.054798,281.834669 C451.616003,281.667798 451.153527,281.178412 450.976611,279.635591 C450.662998,276.900692 449.573856,277.521767 447.145303,281.82037 C444.952052,285.702485 443.103027,291.648829 443.089147,294.864703 C443.082311,296.472566 443.387701,296.807257 444.86223,296.807257 C447.410137,296.807257 454.793722,293.233461 459.278555,289.82948 C461.388403,288.228108 463.349626,286.917896 463.63683,286.917896 C464.247827,286.917896 466.391403,277.913817 466.391403,275.347328 C466.391403,274.196533 465.891361,273.433114 464.939754,273.131085 C463.10546,272.548904 463.511433,271.1842 465.670539,270.674505 C467.636863,270.210318 467.895066,269.735757 469.900067,262.900875 C472.551515,253.862302 477.21366,245.061327 481.872226,240.300401 C486.743175,235.322425 488.615377,234.916141 491.405208,238.231665 C492.989024,240.113923 493.233958,241.063063 493.233958,245.318184 C493.233958,248.020428 492.776317,251.326647 492.216976,252.665333 C490.901123,255.814618 484.347367,264.017282 480.301827,267.578309 C477.729554,269.842512 476.861523,271.261595 475.650498,275.182443 C473.542574,282.00711 473.784982,282.709509 476.810553,278.543788 C478.267467,276.537851 481.201247,273.75719 483.330062,272.364541 C487.891809,269.380294 491.117929,269.407518 493.763744,272.452596 C495.877336,274.885123 495.787949,276.147069 492.86033,285.207494 C489.767189,294.780179 489.025159,299.141823 490.59203,298.540555 C492.267324,297.897691 492.812261,299.560177 491.427719,301.090075 C489.175272,303.579003 485.311754,302.753868 483.585234,299.415149 C482.70088,297.704997 482.562568,296.051704 482.927568,291.55394 C483.364726,286.167036 484.651622,279.582484 485.800953,276.851948 C486.626079,274.891644 484.324146,275.323494 482.847787,277.405972 C482.149753,278.390581 480.658244,280.377283 479.533321,281.820866 C478.408397,283.264451 475.930442,287.719275 474.026758,291.720477 C472.123072,295.721679 470.053296,299.191948 469.427255,299.43218 C467.623404,300.12438 464.687944,298.047021 463.949581,295.555751 C463.577855,294.301532 463.095218,293.275354 462.877058,293.275354 C462.658894,293.275354 461.015552,294.485832 459.225186,295.965305 C452.702688,301.355182 443.531207,304.188505 439.09821,302.183084 L439.09821,302.183073 Z M487.356851,250.965129 C488.298907,248.868341 488.973558,246.190569 488.856076,245.014525 C488.669822,243.150018 488.121363,243.909396 484.572132,250.946018 C482.333448,255.38438 480.518915,259.33364 480.539834,259.72215 C480.617987,261.173628 485.707965,254.635139 487.356851,250.965129 Z M786.110198,268.178304 C784.999639,267.067752 785.093781,266.323599 786.844874,262.371086 C787.712679,260.412295 788.224692,260.075341 790.333276,260.075341 C793.50108,260.075341 796.884712,263.077757 795.541236,264.696551 C795.071145,265.262971 794.423951,265.726407 794.103022,265.726407 C793.782116,265.726407 792.662053,266.521087 791.614035,267.492365 C789.434376,269.512397 787.664826,269.732936 786.110198,268.178304 Z" id="logo"></path>
        </g>
    </g>
</svg>